<?xml version="1.0" encoding="UTF-8" standalone="no"?>
<!-- Created with Inkscape (http://www.inkscape.org/) -->

<svg
   width="96"
   height="96"
   viewBox="0 0 25.4 25.4"
   version="1.1"
   id="svg1"
   inkscape:version="1.4.2 (ebf0e940d0, 2025-05-08)"
   sodipodi:docname="logoViergeAsso.svg"
   xml:space="preserve"
   xmlns:inkscape="http://www.inkscape.org/namespaces/inkscape"
   xmlns:sodipodi="http://sodipodi.sourceforge.net/DTD/sodipodi-0.dtd"
   xmlns="http://www.w3.org/2000/svg"
   xmlns:svg="http://www.w3.org/2000/svg"><sodipodi:namedview
     id="namedview1"
     pagecolor="#ffffff"
     bordercolor="#000000"
     borderopacity="0.25"
     inkscape:showpageshadow="2"
     inkscape:pageopacity="0.0"
     inkscape:pagecheckerboard="0"
     inkscape:deskcolor="#d1d1d1"
     inkscape:document-units="px"
     showgrid="true"
     inkscape:zoom="4.8998367"
     inkscape:cx="113.06499"
     inkscape:cy="78.267915"
     inkscape:window-width="1866"
     inkscape:window-height="1011"
     inkscape:window-x="54"
     inkscape:window-y="32"
     inkscape:window-maximized="1"
     inkscape:current-layer="layer1"><inkscape:grid
       id="grid1"
       units="px"
       originx="0"
       originy="0"
       spacingx="0.26458333"
       spacingy="0.26458333"
       empcolor="#0099e5"
       empopacity="0.30196078"
       color="#0099e5"
       opacity="0.14901961"
       empspacing="5"
       enabled="true"
       visible="true" /></sodipodi:namedview><defs
     id="defs1" /><g
     inkscape:label="Calque 1"
     inkscape:groupmode="layer"
     id="layer1"><circle
       style="fill:#ffffff;stroke:none;stroke-width:0.264583;fill-opacity:1"
       id="path1"
       cx="12.7"
       cy="12.7"
       r="12.7" /><path
       d="M 12.7,7.1437499 V 18.25625 c 0,0.512217 0.413824,0.926041 0.926042,0.926041 h 6.482292 c 0.512217,0 0.926041,-0.413824 0.926041,-0.926041 V 9.9218749 c 0,-0.5122171 -0.413824,-0.9260414 -0.926041,-0.9260414 h -2.315105 c -0.254661,0 -0.46302,-0.2083593 -0.46302,-0.4630211 V 7.1437499 c 0,-0.5122171 -0.413825,-0.9260422 -0.926042,-0.9260422 H 13.626042 C 13.113824,6.2177077 12.7,6.6315328 12.7,7.1437499 Z m 5.55625,0.9260414 h 0.926042 V 5.7546874 c 0,-0.2546617 0.208359,-0.4630211 0.463021,-0.4630211 0.254661,0 0.463021,0.2083594 0.463021,0.4630211 v 2.3151039 c 1.021539,0 1.852083,0.8305439 1.852083,1.8520836 V 18.25625 c 0,1.021539 -0.830544,1.852083 -1.852083,1.852083 h -6.482292 c -1.02154,0 -1.852084,-0.830544 -1.852084,-1.852083 V 7.1437499 c 0,-1.0215397 0.830544,-1.8520836 1.852084,-1.8520836 h 2.778125 c 1.02154,0 1.852083,0.8305439 1.852083,1.8520836 z M 14.667838,7.8382812 h 0.694532 c 0.190996,0 0.347265,0.1562697 0.347265,0.3472656 V 8.880078 c 0,0.1909959 -0.156269,0.3472657 -0.347265,0.3472657 h -0.694532 c -0.190996,0 -0.347265,-0.1562698 -0.347265,-0.3472657 V 8.1855468 c 0,-0.1909959 0.156269,-0.3472656 0.347265,-0.3472656 z m -0.347265,3.1253908 c 0,-0.190996 0.156269,-0.347266 0.347265,-0.347266 h 0.694532 c 0.190996,0 0.347265,0.15627 0.347265,0.347266 v 0.694531 c 0,0.190996 -0.156269,0.347265 -0.347265,0.347265 h -0.694532 c -0.190996,0 -0.347265,-0.156269 -0.347265,-0.347265 z m 0.347265,2.430859 h 0.694532 c 0.190996,0 0.347265,0.15627 0.347265,0.347265 v 0.694532 c 0,0.190996 -0.156269,0.347265 -0.347265,0.347265 h -0.694532 c -0.190996,0 -0.347265,-0.156269 -0.347265,-0.347265 v -0.694532 c 0,-0.190995 0.156269,-0.347265 0.347265,-0.347265 z m 3.356902,-2.430859 c 0,-0.190996 0.156269,-0.347266 0.347266,-0.347266 h 0.694531 c 0.190996,0 0.347266,0.15627 0.347266,0.347266 v 0.694531 c 0,0.190996 -0.15627,0.347265 -0.347266,0.347265 h -0.694531 c -0.190997,0 -0.347266,-0.156269 -0.347266,-0.347265 z m 0.347266,2.430859 h 0.694531 c 0.190996,0 0.347266,0.15627 0.347266,0.347265 v 0.694532 c 0,0.190996 -0.15627,0.347265 -0.347266,0.347265 h -0.694531 c -0.190997,0 -0.347266,-0.156269 -0.347266,-0.347265 v -0.694532 c 0,-0.190995 0.156269,-0.347265 0.347266,-0.347265 z M 4.3656243,9.6903648 c 0,-1.6610878 1.3485482,-3.009636 3.009636,-3.009636 1.6610868,0 3.0096347,1.3485482 3.0096347,3.009636 V 12.7 c 0,1.279095 -1.0360084,2.315103 -2.3151035,2.315103 H 7.6067704 v 4.63021 c 0,0.254661 -0.2083594,0.46302 -0.4630203,0.46302 -0.2546617,0 -0.4630211,-0.208359 -0.4630211,-0.46302 v -4.63021 H 6.2177079 c -1.5337569,0 -2.778125,-1.244368 -2.778125,-2.778125 0,-0.839224 0.3733109,-1.591633 0.9578747,-2.100956 C 4.3743051,9.991328 4.3656251,9.8408464 4.3656243,9.6903648 Z m 3.7041672,4.3986972 c 0.766878,0 1.3890625,-0.622184 1.3890625,-1.389062 V 9.6903648 c 0,-1.1517651 -0.9318295,-2.0835946 -2.0835937,-2.0835946 -1.1517643,0 -2.0835938,0.9318295 -2.0835938,2.0835946 0,0.1794205 0.023153,0.3559462 0.066561,0.5208982 0.049192,0.188102 -0.02604,0.38778 -0.1852078,0.497747 -0.4861719,0.33569 -0.8044986,0.894209 -0.8044986,1.527968 0,1.02154 0.830543,1.852084 1.8520827,1.852084 h 0.4630215 v -2.315103 c 0,-0.254662 0.2083593,-0.463022 0.4630211,-0.463022 0.2546609,0 0.4630202,0.20836 0.4630202,0.463022 v 2.315103 h 0.4630211 z"
       id="path1-5"
       style="stroke-width:0.0289388;stroke:none;stroke-opacity:1;fill:#0369a1;fill-opacity:1" /></g></svg>
